<svg width="786" height="249" viewBox="0 0 786 249" fill="none" xmlns="http://www.w3.org/2000/svg" style="fill-opacity: .1">
<g clip-path="url(#clip0)">
<path d="M132.857 243C74.8672 243 27.8572 189.274 27.8572 123C27.8572 56.7257 74.8672 3 132.857 3C190.847 3 237.857 56.7257 237.857 123C237.857 189.274 190.847 243 132.857 243Z" fill="#DDE3E9"/>
<path d="M27.8572 123C27.8572 61.7057 68.0786 11.1771 120 3.92571C115.783 3.33857 111.497 3 107.143 3C49.1529 3 2.14288 56.7257 2.14288 123C2.14288 189.274 49.1529 243 107.143 243C111.497 243 115.783 242.661 120 242.074C68.0786 234.823 27.8572 184.294 27.8572 123Z" fill="#C5CFD6"/>
<path d="M133.222 219.531H132.853C129.853 219.531 126.832 219.351 123.874 219C121.522 218.717 119.846 216.587 120.124 214.234C120.407 211.881 122.554 210.24 124.89 210.489C127.513 210.801 130.192 210.96 132.853 210.96C135.223 210.96 137.323 212.88 137.323 215.246C137.323 217.611 135.596 219.531 133.222 219.531ZM158.143 214.916C156.412 214.916 154.779 213.857 154.132 212.139C153.296 209.923 154.414 207.45 156.63 206.619C159.099 205.689 161.563 204.596 163.942 203.374C166.05 202.286 168.63 203.121 169.714 205.23C170.794 207.334 169.963 209.919 167.854 210.999C165.184 212.37 162.429 213.587 159.652 214.637C159.159 214.826 158.649 214.916 158.143 214.916ZM100.136 211.641C99.4844 211.641 98.8201 211.491 98.1987 211.174C95.5629 209.833 92.9529 208.329 90.4458 206.683C88.4658 205.389 87.9129 202.736 89.2072 200.751C90.5101 198.776 93.1587 198.219 95.1429 199.513C97.3844 200.983 99.7201 202.337 102.077 203.533C104.186 204.604 105.03 207.184 103.959 209.293C103.204 210.784 101.696 211.641 100.136 211.641ZM186.322 196.393C185.233 196.393 184.14 195.977 183.304 195.15C181.624 193.483 181.612 190.77 183.279 189.09C185.143 187.213 186.956 185.19 188.666 183.081C190.162 181.247 192.862 180.969 194.696 182.46C196.53 183.951 196.813 186.651 195.317 188.49C193.427 190.813 191.426 193.046 189.364 195.124C188.524 195.969 187.419 196.393 186.322 196.393ZM73.9587 190.359C72.7201 190.359 71.4901 189.823 70.6415 188.794C68.7815 186.523 66.9944 184.123 65.3358 181.659C64.0115 179.696 64.5301 177.03 66.4929 175.706C68.4515 174.381 71.1172 174.896 72.4415 176.863C73.9544 179.109 75.5787 181.294 77.2715 183.356C78.7715 185.186 78.5058 187.886 76.6758 189.39C75.8829 190.041 74.9144 190.359 73.9587 190.359ZM205.162 168.343C204.587 168.343 204.009 168.227 203.452 167.987C201.279 167.04 200.289 164.516 201.232 162.343C202.307 159.883 203.289 157.329 204.15 154.761C204.904 152.524 207.334 151.311 209.58 152.066C211.822 152.824 213.03 155.25 212.276 157.496C211.333 160.294 210.262 163.08 209.092 165.767C208.384 167.379 206.807 168.343 205.162 168.343ZM57.6215 160.77C55.8387 160.77 54.1715 159.643 53.5629 157.864C52.6158 155.087 51.7758 152.229 51.0644 149.366C50.4901 147.069 51.8872 144.746 54.1844 144.176C56.4729 143.593 58.8087 144.999 59.3787 147.296C60.0344 149.923 60.8058 152.55 61.6758 155.096C62.4387 157.337 61.2429 159.771 59.0058 160.534C58.5515 160.693 58.0801 160.77 57.6215 160.77ZM213.257 135.497C213.146 135.497 213.034 135.493 212.923 135.484C210.562 135.3 208.8 133.239 208.98 130.877C209.182 128.28 209.284 125.627 209.284 123C209.284 120.634 211.204 118.577 213.57 118.577C215.936 118.577 217.856 120.356 217.856 122.721V123C217.856 125.85 217.744 128.721 217.526 131.541C217.354 133.787 215.473 135.497 213.257 135.497ZM52.1401 127.333C49.7744 127.333 47.8544 125.46 47.8544 123.094V123C47.8544 120.077 47.9701 117.137 48.1972 114.27C48.3858 111.913 50.4387 110.164 52.8087 110.336C55.1701 110.524 56.9315 112.59 56.7429 114.947C56.5329 117.596 56.4258 120.304 56.4258 123C56.4258 125.366 54.5058 127.333 52.1401 127.333ZM210.437 101.777C208.522 101.777 206.777 100.483 206.289 98.5415C205.624 95.9058 204.849 93.2829 203.974 90.7372C203.207 88.5001 204.403 86.0615 206.64 85.2943C208.882 84.5186 211.32 85.7186 212.083 87.9601C213.034 90.7286 213.879 93.5829 214.599 96.4415C215.177 98.7386 213.784 101.066 211.492 101.644C211.144 101.739 210.793 101.777 210.437 101.777ZM57.5658 93.9901C57.1072 93.9901 56.6444 93.9129 56.1858 93.7586C53.9444 93.0001 52.7444 90.5658 53.5029 88.3243C54.4501 85.5386 55.5258 82.7572 56.7044 80.0615C57.6558 77.8886 60.1758 76.9072 62.3487 77.8501C64.5172 78.7972 65.5072 81.3258 64.5601 83.4943C63.4758 85.9672 62.4901 88.5215 61.6244 91.0758C61.0115 92.8629 59.3529 93.9901 57.5658 93.9901ZM196.723 70.8772C195.347 70.8772 194.002 70.2172 193.17 68.9915C191.653 66.7543 190.024 64.5729 188.327 62.5115C186.823 60.6858 187.084 57.9815 188.91 56.4772C190.736 54.9729 193.44 55.2343 194.944 57.0601C196.809 59.3272 198.6 61.7229 200.267 64.1872C201.596 66.1458 201.082 68.8115 199.123 70.1401C198.386 70.6372 197.554 70.8772 196.723 70.8772ZM73.8344 64.3586C72.8829 64.3586 71.9229 64.0415 71.1258 63.3901C69.2915 61.8943 69.0215 59.1943 70.5215 57.3601C72.4115 55.0458 74.4172 52.8172 76.4829 50.7386C78.1544 49.0672 80.8672 49.0543 82.5429 50.7215C84.2229 52.3929 84.2315 55.1015 82.5644 56.7815C80.6958 58.6629 78.8744 60.6815 77.1558 62.7858C76.3158 63.8229 75.0815 64.3586 73.8344 64.3586ZM172.757 47.0872C171.956 47.0872 171.146 46.8643 170.426 46.3929C168.184 44.9315 165.844 43.5858 163.474 42.3901C161.366 41.3229 160.517 38.7472 161.584 36.6343C162.652 34.5301 165.223 33.6686 167.34 34.7401C169.989 36.0729 172.599 37.5772 175.102 39.2101C177.086 40.5043 177.647 43.1615 176.353 45.1415C175.53 46.4058 174.163 47.0872 172.757 47.0872ZM99.9815 43.0158C98.4215 43.0158 96.9172 42.1629 96.1587 40.6758C95.0829 38.5672 95.9229 35.9872 98.0315 34.9115C100.702 33.5529 103.462 32.3315 106.243 31.2943C108.454 30.4629 110.927 31.5858 111.759 33.8058C112.586 36.0215 111.463 38.4901 109.243 39.3215C106.766 40.2472 104.302 41.3315 101.919 42.5486C101.302 42.8658 100.633 43.0158 99.9815 43.0158ZM141.15 35.5201C140.983 35.5201 140.816 35.5115 140.649 35.4901C138.069 35.1901 135.446 35.0401 132.853 35.0401C130.487 35.0401 128.477 33.1201 128.477 30.7543C128.477 28.3886 130.307 26.4686 132.673 26.4686H132.853C135.776 26.4686 138.733 26.6401 141.639 26.9786C143.987 27.2486 145.676 29.3743 145.402 31.7272C145.153 33.9129 143.293 35.5201 141.15 35.5201Z" fill="white"/>
<path d="M27.8486 127.286H2.14288C2.2286 130.17 2.39145 133.029 2.65288 135.857H28.38C28.1143 133.029 27.9386 130.17 27.8486 127.286Z" fill="white"/>
<path d="M28.83 105.857H3.13287C2.77716 108.681 2.52001 111.544 2.3443 114.429H28.0543C28.2343 111.544 28.4743 108.681 28.83 105.857Z" fill="white"/>
<path d="M30.2058 148.714H4.48718C5.04433 151.611 5.68718 154.47 6.42004 157.286H32.13C31.4015 154.47 30.7629 151.611 30.2058 148.714Z" fill="white"/>
<path d="M36.2014 170.143H10.47C11.5628 173.066 12.7714 175.916 14.0571 178.714H39.7757C38.49 175.92 37.2943 173.061 36.2014 170.143Z" fill="white"/>
<path d="M33.3086 84.4286H7.62432C6.78861 87.2443 6.00861 90.0943 5.35718 93H31.1015C31.7529 90.1029 32.4772 87.2357 33.3086 84.4286Z" fill="white"/>
<path d="M41.8457 63H16.1314C14.7171 65.79 13.3843 68.6443 12.1671 71.5714H37.8985C39.1157 68.6486 40.4314 65.79 41.8457 63Z" fill="white"/>
<path d="M59.3357 37.2857H33.5914C31.1529 40.0114 28.8343 42.87 26.64 45.8571H52.3757C54.5743 42.87 56.8972 40.0114 59.3357 37.2857Z" fill="white"/>
<path d="M85.5428 15.8571H59.7728C55.3928 18.3857 51.1928 21.2485 47.19 24.4285H72.9428C76.95 21.2485 81.1585 18.3857 85.5428 15.8571Z" fill="white"/>
<path d="M49.3672 195.857H23.64C25.6286 198.827 27.7286 201.686 29.9486 204.429H55.6929C53.4729 201.686 51.36 198.827 49.3672 195.857Z" fill="white"/>
<path d="M42.1372 217.286C45.5786 220.384 49.1829 223.26 52.9544 225.857H78.7286C74.9401 223.256 71.2972 220.397 67.8429 217.286H42.1372Z" fill="white"/>
</g>
<g clip-path="url(#clip1)">
<path d="M678.857 249C620.867 249 573.857 195.274 573.857 129C573.857 62.7257 620.867 9 678.857 9C736.847 9 783.857 62.7257 783.857 129C783.857 195.274 736.847 249 678.857 249Z" fill="#DDE3E9"/>
<path d="M573.857 129C573.857 67.7057 614.079 17.1771 666 9.92571C661.783 9.33857 657.497 9 653.143 9C595.153 9 548.143 62.7257 548.143 129C548.143 195.274 595.153 249 653.143 249C657.497 249 661.783 248.661 666 248.074C614.079 240.823 573.857 190.294 573.857 129Z" fill="#C5CFD6"/>
<path d="M679.221 225.531H678.853C675.853 225.531 672.831 225.351 669.874 225C667.521 224.717 665.846 222.587 666.124 220.234C666.407 217.881 668.554 216.24 670.89 216.489C673.513 216.801 676.192 216.96 678.853 216.96C681.223 216.96 683.323 218.88 683.323 221.246C683.323 223.611 681.596 225.531 679.221 225.531ZM704.143 220.916C702.412 220.916 700.779 219.857 700.132 218.139C699.296 215.923 700.414 213.45 702.63 212.619C705.099 211.689 707.563 210.596 709.941 209.374C712.05 208.286 714.63 209.121 715.714 211.23C716.794 213.334 715.963 215.919 713.854 216.999C711.184 218.37 708.429 219.587 705.652 220.637C705.159 220.826 704.649 220.916 704.143 220.916ZM646.136 217.641C645.484 217.641 644.82 217.491 644.199 217.174C641.563 215.833 638.953 214.329 636.446 212.683C634.466 211.389 633.913 208.736 635.207 206.751C636.51 204.776 639.159 204.219 641.143 205.513C643.384 206.983 645.72 208.337 648.077 209.533C650.186 210.604 651.03 213.184 649.959 215.293C649.204 216.784 647.696 217.641 646.136 217.641ZM732.322 202.393C731.233 202.393 730.14 201.977 729.304 201.15C727.624 199.483 727.612 196.77 729.279 195.09C731.143 193.213 732.956 191.19 734.666 189.081C736.162 187.247 738.862 186.969 740.696 188.46C742.53 189.951 742.813 192.651 741.317 194.49C739.427 196.813 737.426 199.046 735.364 201.124C734.524 201.969 733.419 202.393 732.322 202.393ZM619.959 196.359C618.72 196.359 617.49 195.823 616.641 194.794C614.781 192.523 612.994 190.123 611.336 187.659C610.011 185.696 610.53 183.03 612.493 181.706C614.451 180.381 617.117 180.896 618.441 182.863C619.954 185.109 621.579 187.294 623.272 189.356C624.772 191.186 624.506 193.886 622.676 195.39C621.883 196.041 620.914 196.359 619.959 196.359ZM751.162 174.343C750.587 174.343 750.009 174.227 749.452 173.987C747.279 173.04 746.289 170.516 747.232 168.343C748.307 165.883 749.289 163.329 750.15 160.761C750.904 158.524 753.334 157.311 755.58 158.066C757.822 158.824 759.03 161.25 758.276 163.496C757.333 166.294 756.262 169.08 755.092 171.767C754.384 173.379 752.807 174.343 751.162 174.343ZM603.621 166.77C601.839 166.77 600.171 165.643 599.563 163.864C598.616 161.087 597.776 158.229 597.064 155.366C596.49 153.069 597.887 150.746 600.184 150.176C602.473 149.593 604.809 150.999 605.379 153.296C606.034 155.923 606.806 158.55 607.676 161.096C608.439 163.337 607.243 165.771 605.006 166.534C604.551 166.693 604.08 166.77 603.621 166.77ZM759.257 141.497C759.146 141.497 759.034 141.493 758.923 141.484C756.562 141.3 754.8 139.239 754.98 136.877C755.182 134.28 755.284 131.627 755.284 129C755.284 126.634 757.204 124.577 759.57 124.577C761.936 124.577 763.856 126.356 763.856 128.721V129C763.856 131.85 763.744 134.721 763.526 137.541C763.354 139.787 761.473 141.497 759.257 141.497ZM598.14 133.333C595.774 133.333 593.854 131.46 593.854 129.094V129C593.854 126.077 593.97 123.137 594.197 120.27C594.386 117.913 596.439 116.164 598.809 116.336C601.17 116.524 602.931 118.59 602.743 120.947C602.533 123.596 602.426 126.304 602.426 129C602.426 131.366 600.506 133.333 598.14 133.333ZM756.437 107.777C754.522 107.777 752.777 106.483 752.289 104.541C751.624 101.906 750.849 99.2829 749.974 96.7372C749.207 94.5001 750.403 92.0615 752.64 91.2943C754.882 90.5186 757.32 91.7186 758.083 93.9601C759.034 96.7286 759.879 99.5829 760.599 102.441C761.177 104.739 759.784 107.066 757.492 107.644C757.144 107.739 756.793 107.777 756.437 107.777ZM603.566 99.9901C603.107 99.9901 602.644 99.9129 602.186 99.7586C599.944 99.0001 598.744 96.5658 599.503 94.3243C600.45 91.5386 601.526 88.7572 602.704 86.0615C603.656 83.8886 606.176 82.9072 608.349 83.8501C610.517 84.7972 611.507 87.3258 610.56 89.4943C609.476 91.9672 608.49 94.5215 607.624 97.0758C607.011 98.8629 605.353 99.9901 603.566 99.9901ZM742.723 76.8772C741.347 76.8772 740.002 76.2172 739.17 74.9915C737.653 72.7543 736.024 70.5729 734.327 68.5115C732.823 66.6858 733.084 63.9815 734.91 62.4772C736.736 60.9729 739.44 61.2343 740.944 63.0601C742.809 65.3272 744.6 67.7229 746.267 70.1872C747.596 72.1458 747.082 74.8115 745.123 76.1401C744.386 76.6372 743.554 76.8772 742.723 76.8772ZM619.834 70.3586C618.883 70.3586 617.923 70.0415 617.126 69.3901C615.292 67.8943 615.021 65.1943 616.521 63.3601C618.411 61.0458 620.417 58.8172 622.483 56.7386C624.154 55.0672 626.867 55.0543 628.543 56.7215C630.223 58.3929 630.231 61.1015 628.564 62.7815C626.696 64.6629 624.874 66.6815 623.156 68.7858C622.316 69.8229 621.082 70.3586 619.834 70.3586ZM718.757 53.0872C717.956 53.0872 717.146 52.8643 716.426 52.3929C714.184 50.9315 711.844 49.5858 709.474 48.3901C707.366 47.3229 706.517 44.7472 707.584 42.6343C708.652 40.5301 711.223 39.6686 713.34 40.7401C715.989 42.0729 718.599 43.5772 721.101 45.2101C723.086 46.5043 723.647 49.1615 722.353 51.1415C721.53 52.4058 720.163 53.0872 718.757 53.0872ZM645.982 49.0158C644.422 49.0158 642.917 48.1629 642.159 46.6758C641.083 44.5672 641.923 41.9872 644.032 40.9115C646.702 39.5529 649.462 38.3315 652.243 37.2943C654.454 36.4629 656.927 37.5858 657.759 39.8058C658.586 42.0215 657.463 44.4901 655.243 45.3215C652.766 46.2472 650.302 47.3315 647.919 48.5486C647.302 48.8658 646.633 49.0158 645.982 49.0158ZM687.15 41.5201C686.983 41.5201 686.816 41.5115 686.649 41.4901C684.069 41.1901 681.446 41.0401 678.853 41.0401C676.487 41.0401 674.477 39.1201 674.477 36.7543C674.477 34.3886 676.307 32.4686 678.673 32.4686H678.853C681.776 32.4686 684.733 32.6401 687.639 32.9786C689.987 33.2486 691.676 35.3743 691.401 37.7272C691.153 39.9129 689.293 41.5201 687.15 41.5201Z" fill="white"/>
<path d="M573.849 133.286H548.143C548.229 136.17 548.391 139.029 548.653 141.857H574.38C574.114 139.029 573.939 136.17 573.849 133.286Z" fill="white"/>
<path d="M574.83 111.857H549.133C548.777 114.681 548.52 117.544 548.344 120.429H574.054C574.234 117.544 574.474 114.681 574.83 111.857Z" fill="white"/>
<path d="M576.206 154.714H550.487C551.044 157.611 551.687 160.47 552.42 163.286H578.13C577.401 160.47 576.763 157.611 576.206 154.714Z" fill="white"/>
<path d="M582.201 176.143H556.47C557.563 179.066 558.771 181.916 560.057 184.714H585.776C584.49 181.92 583.294 179.061 582.201 176.143Z" fill="white"/>
<path d="M579.309 90.4286H553.624C552.789 93.2443 552.009 96.0943 551.357 99H577.101C577.753 96.1029 578.477 93.2357 579.309 90.4286Z" fill="white"/>
<path d="M587.846 69H562.131C560.717 71.79 559.384 74.6443 558.167 77.5714H583.899C585.116 74.6486 586.431 71.79 587.846 69Z" fill="white"/>
<path d="M605.336 43.2857H579.591C577.153 46.0114 574.834 48.87 572.64 51.8571H598.376C600.574 48.87 602.897 46.0114 605.336 43.2857Z" fill="white"/>
<path d="M631.543 21.8571H605.773C601.393 24.3857 597.193 27.2485 593.19 30.4285H618.943C622.95 27.2485 627.159 24.3857 631.543 21.8571Z" fill="white"/>
<path d="M595.367 201.857H569.64C571.629 204.827 573.729 207.686 575.949 210.429H601.693C599.473 207.686 597.36 204.827 595.367 201.857Z" fill="white"/>
<path d="M588.137 223.286C591.579 226.384 595.183 229.26 598.954 231.857H624.729C620.94 229.256 617.297 226.397 613.843 223.286H588.137Z" fill="white"/>
</g>
<g clip-path="url(#clip2)">
<path d="M405.857 240C347.867 240 300.857 186.274 300.857 120C300.857 53.7257 347.867 0 405.857 0C463.847 0 510.857 53.7257 510.857 120C510.857 186.274 463.847 240 405.857 240Z" fill="#DDE3E9"/>
<path d="M300.857 120C300.857 58.7057 341.079 8.17714 393 0.925714C388.783 0.338571 384.497 0 380.143 0C322.153 0 275.143 53.7257 275.143 120C275.143 186.274 322.153 240 380.143 240C384.497 240 388.783 239.661 393 239.074C341.079 231.823 300.857 181.294 300.857 120Z" fill="#C5CFD6"/>
<path d="M406.221 216.531H405.853C402.853 216.531 399.831 216.351 396.874 216C394.521 215.717 392.846 213.587 393.124 211.234C393.407 208.881 395.554 207.24 397.89 207.489C400.513 207.801 403.192 207.96 405.853 207.96C408.223 207.96 410.323 209.88 410.323 212.246C410.323 214.611 408.596 216.531 406.221 216.531ZM431.143 211.916C429.412 211.916 427.779 210.857 427.132 209.139C426.296 206.923 427.414 204.45 429.63 203.619C432.099 202.689 434.563 201.596 436.941 200.374C439.05 199.286 441.63 200.121 442.714 202.23C443.794 204.334 442.963 206.919 440.854 207.999C438.184 209.37 435.429 210.587 432.652 211.637C432.159 211.826 431.649 211.916 431.143 211.916ZM373.136 208.641C372.484 208.641 371.82 208.491 371.199 208.174C368.563 206.833 365.953 205.329 363.446 203.683C361.466 202.389 360.913 199.736 362.207 197.751C363.51 195.776 366.159 195.219 368.143 196.513C370.384 197.983 372.72 199.337 375.077 200.533C377.186 201.604 378.03 204.184 376.959 206.293C376.204 207.784 374.696 208.641 373.136 208.641ZM459.322 193.393C458.233 193.393 457.14 192.977 456.304 192.15C454.624 190.483 454.612 187.77 456.279 186.09C458.143 184.213 459.956 182.19 461.666 180.081C463.162 178.247 465.862 177.969 467.696 179.46C469.53 180.951 469.813 183.651 468.317 185.49C466.427 187.813 464.426 190.046 462.364 192.124C461.524 192.969 460.419 193.393 459.322 193.393ZM346.959 187.359C345.72 187.359 344.49 186.823 343.641 185.794C341.781 183.523 339.994 181.123 338.336 178.659C337.011 176.696 337.53 174.03 339.493 172.706C341.451 171.381 344.117 171.896 345.441 173.863C346.954 176.109 348.579 178.294 350.272 180.356C351.772 182.186 351.506 184.886 349.676 186.39C348.883 187.041 347.914 187.359 346.959 187.359ZM478.162 165.343C477.587 165.343 477.009 165.227 476.452 164.987C474.279 164.04 473.289 161.516 474.232 159.343C475.307 156.883 476.289 154.329 477.15 151.761C477.904 149.524 480.334 148.311 482.58 149.066C484.822 149.824 486.03 152.25 485.276 154.496C484.333 157.294 483.262 160.08 482.092 162.767C481.384 164.379 479.807 165.343 478.162 165.343ZM330.621 157.77C328.839 157.77 327.171 156.643 326.563 154.864C325.616 152.087 324.776 149.229 324.064 146.366C323.49 144.069 324.887 141.746 327.184 141.176C329.473 140.593 331.809 141.999 332.379 144.296C333.034 146.923 333.806 149.55 334.676 152.096C335.439 154.337 334.243 156.771 332.006 157.534C331.551 157.693 331.08 157.77 330.621 157.77ZM486.257 132.497C486.146 132.497 486.034 132.493 485.923 132.484C483.562 132.3 481.8 130.239 481.98 127.877C482.182 125.28 482.284 122.627 482.284 120C482.284 117.634 484.204 115.577 486.57 115.577C488.936 115.577 490.856 117.356 490.856 119.721V120C490.856 122.85 490.744 125.721 490.526 128.541C490.354 130.787 488.473 132.497 486.257 132.497ZM325.14 124.333C322.774 124.333 320.854 122.46 320.854 120.094V120C320.854 117.077 320.97 114.137 321.197 111.27C321.386 108.913 323.439 107.164 325.809 107.336C328.17 107.524 329.931 109.59 329.743 111.947C329.533 114.596 329.426 117.304 329.426 120C329.426 122.366 327.506 124.333 325.14 124.333ZM483.437 98.7772C481.522 98.7772 479.777 97.4829 479.289 95.5415C478.624 92.9058 477.849 90.2829 476.974 87.7372C476.207 85.5001 477.403 83.0615 479.64 82.2943C481.882 81.5186 484.32 82.7186 485.083 84.9601C486.034 87.7286 486.879 90.5829 487.599 93.4415C488.177 95.7386 486.784 98.0658 484.492 98.6443C484.144 98.7386 483.793 98.7772 483.437 98.7772ZM330.566 90.9901C330.107 90.9901 329.644 90.9129 329.186 90.7586C326.944 90.0001 325.744 87.5658 326.503 85.3243C327.45 82.5386 328.526 79.7572 329.704 77.0615C330.656 74.8886 333.176 73.9072 335.349 74.8501C337.517 75.7972 338.507 78.3258 337.56 80.4943C336.476 82.9672 335.49 85.5215 334.624 88.0758C334.011 89.8629 332.353 90.9901 330.566 90.9901ZM469.723 67.8772C468.347 67.8772 467.002 67.2172 466.17 65.9915C464.653 63.7543 463.024 61.5729 461.327 59.5115C459.823 57.6858 460.084 54.9815 461.91 53.4772C463.736 51.9729 466.44 52.2343 467.944 54.0601C469.809 56.3272 471.6 58.7229 473.267 61.1872C474.596 63.1458 474.082 65.8115 472.123 67.1401C471.386 67.6372 470.554 67.8772 469.723 67.8772ZM346.834 61.3586C345.883 61.3586 344.923 61.0415 344.126 60.3901C342.292 58.8943 342.021 56.1943 343.521 54.3601C345.411 52.0458 347.417 49.8172 349.483 47.7386C351.154 46.0672 353.867 46.0543 355.543 47.7215C357.223 49.3929 357.231 52.1015 355.564 53.7815C353.696 55.6629 351.874 57.6815 350.156 59.7858C349.316 60.8229 348.082 61.3586 346.834 61.3586ZM445.757 44.0872C444.956 44.0872 444.146 43.8643 443.426 43.3929C441.184 41.9315 438.844 40.5858 436.474 39.3901C434.366 38.3229 433.517 35.7472 434.584 33.6343C435.652 31.5301 438.223 30.6686 440.34 31.7401C442.989 33.0729 445.599 34.5772 448.101 36.2101C450.086 37.5043 450.647 40.1615 449.353 42.1415C448.53 43.4058 447.163 44.0872 445.757 44.0872ZM372.982 40.0158C371.422 40.0158 369.917 39.1629 369.159 37.6758C368.083 35.5672 368.923 32.9872 371.032 31.9115C373.702 30.5529 376.462 29.3315 379.243 28.2943C381.454 27.4629 383.927 28.5858 384.759 30.8058C385.586 33.0215 384.463 35.4901 382.243 36.3215C379.766 37.2472 377.302 38.3315 374.919 39.5486C374.302 39.8658 373.633 40.0158 372.982 40.0158ZM414.15 32.5201C413.983 32.5201 413.816 32.5115 413.649 32.4901C411.069 32.1901 408.446 32.0401 405.853 32.0401C403.487 32.0401 401.477 30.1201 401.477 27.7543C401.477 25.3886 403.307 23.4686 405.673 23.4686H405.853C408.776 23.4686 411.733 23.6401 414.639 23.9786C416.987 24.2486 418.676 26.3743 418.401 28.7272C418.153 30.9129 416.293 32.5201 414.15 32.5201Z" fill="white"/>
<path d="M300.849 124.286H275.143C275.229 127.17 275.391 130.029 275.653 132.857H301.38C301.114 130.029 300.939 127.17 300.849 124.286Z" fill="white"/>
<path d="M301.83 102.857H276.133C275.777 105.681 275.52 108.544 275.344 111.429H301.054C301.234 108.544 301.474 105.681 301.83 102.857Z" fill="white"/>
<path d="M303.206 145.714H277.487C278.044 148.611 278.687 151.47 279.42 154.286H305.13C304.401 151.47 303.763 148.611 303.206 145.714Z" fill="white"/>
<path d="M309.201 167.143H283.47C284.563 170.066 285.771 172.916 287.057 175.714H312.776C311.49 172.92 310.294 170.061 309.201 167.143Z" fill="white"/>
<path d="M306.309 81.4286H280.624C279.789 84.2443 279.009 87.0943 278.357 90H304.101C304.753 87.1029 305.477 84.2357 306.309 81.4286Z" fill="white"/>
<path d="M314.846 60H289.131C287.717 62.79 286.384 65.6443 285.167 68.5714H310.899C312.116 65.6486 313.431 62.79 314.846 60Z" fill="white"/>
<path d="M332.336 34.2857H306.591C304.153 37.0114 301.834 39.87 299.64 42.8571H325.376C327.574 39.87 329.897 37.0114 332.336 34.2857Z" fill="white"/>
<path d="M358.543 12.8571H332.773C328.393 15.3857 324.193 18.2485 320.19 21.4285H345.943C349.95 18.2485 354.159 15.3857 358.543 12.8571Z" fill="white"/>
<path d="M322.367 192.857H296.64C298.629 195.827 300.729 198.686 302.949 201.429H328.693C326.473 198.686 324.36 195.827 322.367 192.857Z" fill="white"/>
<path d="M315.137 214.286C318.579 217.384 322.183 220.26 325.954 222.857H351.729C347.94 220.256 344.297 217.397 340.843 214.286H315.137Z" fill="white"/>
</g>
<defs>
<clipPath id="clip0">
<rect width="240" height="240" fill="white" transform="translate(0 3)"/>
</clipPath>
<clipPath id="clip1">
<rect width="240" height="240" fill="white" transform="translate(546 9)"/>
</clipPath>
<clipPath id="clip2">
<rect width="240" height="240" fill="white" transform="translate(273)"/>
</clipPath>
</defs>
</svg>
